<?xml version="1.0" encoding="UTF-8" standalone="no"?><svg xmlns="http://www.w3.org/2000/svg" xmlns:xlink="http://www.w3.org/1999/xlink" contentScriptType="text/ecmascript" fill="none" width="48" zoomAndPan="magnify" style="stroke-opacity: 1.0;" contentStyleType="text/css" viewBox="0 0 48 48" height="48" preserveAspectRatio="xMidYMid meet" version="1.0">
<path fill="none" fill-opacity="1.0" stroke-width="3.011047767857144" d="M24 44C35.0457 44 44 35.0457 44 24C44 12.9543 35.0457 4 24 4C12.9543 4 4 12.9543 4 24C4 35.0457 12.9543 44 24 44Z" stroke-linejoin="round" stroke="#FFFFFF"/>
<path d="M31 31C31 31 29 35 24 35C19 35 17 31 17 31" stroke-width="3.011047767857144" stroke-linejoin="round" stroke-linecap="round" stroke="#FFFFFF"/>
<path d="M21 21C21 21 20 17 17 17C14 17 13 21 13 21" stroke-width="3.011047767857144" stroke-linejoin="round" stroke-linecap="round" stroke="#FFFFFF"/>
<path d="M35 21C35 21 34 17 31 17C28 17 27 21 27 21" stroke-width="3.011047767857144" stroke-linejoin="round" stroke-linecap="round" stroke="#FFFFFF"/>
</svg>